<svg width="26" height="27" viewBox="0 0 26 27" fill="none" xmlns="http://www.w3.org/2000/svg">
<path d="M25.9379 20.9249C25.8037 20.3484 25.509 19.8257 25.0907 19.4219C24.0051 18.2969 22.9173 17.1756 21.8276 16.0581C21.5267 15.724 21.1497 15.4741 20.7312 15.3313C20.3128 15.1886 19.8664 15.1576 19.4334 15.2414C18.86 15.3627 18.3365 15.6643 17.934 16.1053C17.3403 16.7128 16.7525 17.3279 16.1704 17.9504C16.1563 17.9709 16.1386 17.9884 16.1183 18.0021C16.0986 18.0156 16.0766 18.0249 16.0533 18.0291C16.0302 18.0318 16.0069 18.031 15.984 18.0269C15.9611 18.0215 15.9394 18.0107 15.9211 17.9954C14.8015 17.3989 13.7633 16.6506 12.8336 15.7701C12.4805 15.4461 12.1375 15.1123 11.8044 14.7688L11.7915 14.7553L11.7784 14.7419C11.447 14.3954 11.1264 14.0391 10.8164 13.6731C9.96714 12.7083 9.24577 11.63 8.67143 10.4668C8.65673 10.4478 8.64626 10.4255 8.64101 10.4018C8.63576 10.378 8.63577 10.3533 8.64101 10.3295C8.64335 10.3053 8.65152 10.2821 8.66481 10.262C8.67792 10.2409 8.6948 10.2226 8.71454 10.208C9.31255 9.60502 9.9048 8.99453 10.4912 8.37652C10.9159 7.95853 11.2065 7.41491 11.3233 6.81951C11.4039 6.36984 11.374 5.90636 11.2366 5.47182C11.0991 5.03728 10.8584 4.6457 10.5367 4.33324C9.46424 3.197 8.38451 2.0675 7.29753 0.944721C6.90871 0.510271 6.4054 0.204285 5.85024 0.064948C5.40037 -0.0377466 4.93254 -0.0183893 4.49195 0.121116C4.05137 0.260622 3.65284 0.515583 3.33468 0.861464C2.6175 1.58147 1.92416 2.32848 1.22431 3.06874C1.19615 3.09799 1.16798 3.12723 1.13981 3.15873C0.545642 3.81134 0.164968 4.64208 0.0520933 5.53252C-0.0497256 6.40059 -0.00203231 7.28055 0.192934 8.13129C0.461862 9.45423 0.892892 10.7359 1.47558 11.9451C4.2266 17.8462 8.81473 22.6108 14.4973 25.4677C15.6617 26.0728 16.896 26.5204 18.1699 26.7997C18.9892 27.0021 19.8365 27.0516 20.6724 26.946C21.5299 26.8288 22.3298 26.4335 22.9583 25.8164L23.0471 25.7264C23.7578 25.0019 24.4771 24.2819 25.1704 23.5372C25.5035 23.2068 25.749 22.7929 25.8834 22.3353C26.0177 21.8778 26.0363 21.3921 25.9375 20.9249H25.9379ZM24.003 22.3649C23.4418 22.9679 22.8633 23.5529 22.287 24.1379L21.8254 24.6082C21.4357 24.9819 20.9418 25.2174 20.4149 25.2809C19.7656 25.3529 19.1092 25.3057 18.4757 25.1414C17.3377 24.8915 16.2357 24.4891 15.1975 23.9444C9.85264 21.2523 5.53593 16.7704 2.94257 11.2206C2.41812 10.1416 2.0307 8.99651 1.78992 7.81402C1.63347 7.15585 1.5888 6.47437 1.65781 5.80024C1.72965 5.21439 1.98553 4.66951 2.38582 4.24999L2.81694 3.79323C3.36078 3.21497 3.90459 2.63673 4.46577 2.07423C4.5648 1.95778 4.68573 1.8636 4.82111 1.79747C4.95662 1.72987 5.10423 1.69233 5.25448 1.68723C5.34273 1.68745 5.43062 1.698 5.51659 1.71871C5.76135 1.79302 5.98025 1.93911 6.147 2.13946L6.277 2.27449C7.31268 3.35 8.34559 4.42998 9.3755 5.51449C9.51546 5.63391 9.62152 5.79054 9.68257 5.96765C9.74362 6.14476 9.75731 6.33574 9.72211 6.52026C9.66152 6.779 9.52714 7.01272 9.33649 7.19078C8.75581 7.79829 8.17 8.40129 7.57921 8.9998C7.29539 9.27679 7.10596 9.64208 7.03952 10.0406C6.97308 10.4392 7.03327 10.8494 7.21091 11.2093C7.84758 12.5072 8.64915 13.7105 9.59423 14.7868C9.9279 15.1806 10.2703 15.5631 10.5303 15.8219L10.6581 15.9658C11.0135 16.3348 11.3818 16.6903 11.7609 17.0369C12.7967 18.0192 13.9556 18.8518 15.206 19.5119C15.5531 19.6969 15.9487 19.7594 16.333 19.69C16.7174 19.6206 17.0694 19.423 17.3359 19.1271C17.9101 18.5129 18.4893 17.9061 19.0736 17.3069C19.2449 17.1082 19.47 16.9679 19.7193 16.9041C19.8973 16.8673 20.0816 16.8813 20.2525 16.9447C20.4235 17.0081 20.5747 17.1185 20.69 17.2641C21.7798 18.3756 22.8632 19.4931 23.94 20.6166C24.1329 20.7899 24.2736 21.0172 24.3452 21.2714C24.3923 21.4683 24.3847 21.675 24.3236 21.8677C24.2629 22.0609 24.1519 22.233 24.003 22.3649V22.3649Z" fill="#DB5D02"/>
</svg>
